<?xml version="1.0" encoding="UTF-8" standalone="no"?>
<!DOCTYPE svg PUBLIC "-//W3C//DTD SVG 1.1//EN"
 "http://www.w3.org/Graphics/SVG/1.1/DTD/svg11.dtd">
<!-- Generated by graphviz version 2.43.0 (0)
 -->
<!-- Title: inheritanceaae473879d Pages: 1 -->
<svg width="576pt" height="485pt"
 viewBox="0.00 0.00 576.00 485.35" xmlns="http://www.w3.org/2000/svg" xmlns:xlink="http://www.w3.org/1999/xlink">
<g id="graph0" class="graph" transform="scale(1.17 1.17) rotate(0) translate(4 562)">
<title>inheritanceaae473879d</title>
<polygon fill="white" stroke="transparent" points="-4,4 -4,-562 667.71,-562 667.71,4 -4,4"/>
<!-- InstrumentalDetune -->
<g id="node1" class="node">
<title>InstrumentalDetune</title>
<g id="a_node1"><a xlink:href="../../api/kidsproc.kidsmodel.InstrumentalDetune.html#kidsproc.kidsmodel.InstrumentalDetune" xlink:title="Model that describes the detuning in terms of the probe tone and" target="_top">
<polygon fill="none" stroke="black" stroke-width="0.5" points="433.44,-306 329.89,-306 329.89,-288 433.44,-288 433.44,-306"/>
<text text-anchor="middle" x="381.67" y="-294" font-family="Vera Sans, DejaVu Sans, Liberation Sans, Arial, Helvetica, sans" font-size="10.00">InstrumentalDetune</text>
</a>
</g>
</g>
<!-- _Model -->
<g id="node2" class="node">
<title>_Model</title>
<g id="a_node2"><a xlink:title="Subclass of astropy.modeling.Model that support complex type.">
<polygon fill="none" stroke="black" stroke-width="0.5" points="202.9,-234 148.9,-234 148.9,-216 202.9,-216 202.9,-234"/>
<text text-anchor="middle" x="175.9" y="-222" font-family="Vera Sans, DejaVu Sans, Liberation Sans, Arial, Helvetica, sans" font-size="10.00">_Model</text>
</a>
</g>
</g>
<!-- _Model&#45;&gt;InstrumentalDetune -->
<g id="edge1" class="edge">
<title>_Model&#45;&gt;InstrumentalDetune</title>
<path fill="none" stroke="black" stroke-width="0.5" d="M194.07,-234.03C217.11,-245.83 259.58,-266.46 297.8,-279 306.85,-281.97 316.63,-284.59 326.17,-286.84"/>
<polygon fill="black" stroke="black" stroke-width="0.5" points="325.88,-288.57 331.14,-287.99 326.66,-285.16 325.88,-288.57"/>
</g>
<!-- _ComposableModelBase -->
<g id="node8" class="node">
<title>_ComposableModelBase</title>
<g id="a_node8"><a xlink:title="Base class that setup itself with mixin classes.">
<polygon fill="none" stroke="black" stroke-width="0.5" points="445.4,-234 317.93,-234 317.93,-216 445.4,-216 445.4,-234"/>
<text text-anchor="middle" x="381.67" y="-222" font-family="Vera Sans, DejaVu Sans, Liberation Sans, Arial, Helvetica, sans" font-size="10.00">_ComposableModelBase</text>
</a>
</g>
</g>
<!-- _Model&#45;&gt;_ComposableModelBase -->
<g id="edge51" class="edge">
<title>_Model&#45;&gt;_ComposableModelBase</title>
<path fill="none" stroke="black" stroke-width="0.5" d="M203.12,-225C230.69,-225 275.19,-225 312.74,-225"/>
<polygon fill="black" stroke="black" stroke-width="0.5" points="312.76,-226.75 317.76,-225 312.76,-223.25 312.76,-226.75"/>
</g>
<!-- OpticalDetune -->
<g id="node15" class="node">
<title>OpticalDetune</title>
<g id="a_node15"><a xlink:href="../../api/kidsproc.kidsmodel.OpticalDetune.html#kidsproc.kidsmodel.OpticalDetune" xlink:title="Model that describes detuning of KIDs in response to incident" target="_top">
<polygon fill="none" stroke="black" stroke-width="0.5" points="421.54,-270 341.8,-270 341.8,-252 421.54,-252 421.54,-270"/>
<text text-anchor="middle" x="381.67" y="-258" font-family="Vera Sans, DejaVu Sans, Liberation Sans, Arial, Helvetica, sans" font-size="10.00">OpticalDetune</text>
</a>
</g>
</g>
<!-- _Model&#45;&gt;OpticalDetune -->
<g id="edge22" class="edge">
<title>_Model&#45;&gt;OpticalDetune</title>
<path fill="none" stroke="black" stroke-width="0.5" d="M203.12,-229.63C236.76,-235.58 295.61,-245.97 336.28,-253.16"/>
<polygon fill="black" stroke="black" stroke-width="0.5" points="336.42,-254.96 341.64,-254.11 337.02,-251.51 336.42,-254.96"/>
</g>
<!-- ResonanceCircle -->
<g id="node19" class="node">
<title>ResonanceCircle</title>
<g id="a_node19"><a xlink:href="../../api/kidsproc.kidsmodel.ResonanceCircle.html#kidsproc.kidsmodel.ResonanceCircle" xlink:title="Same as `ResonanceCircleComplex`, but with separate real and imaginary" target="_top">
<polygon fill="none" stroke="black" stroke-width="0.5" points="427.81,-378 335.52,-378 335.52,-360 427.81,-360 427.81,-378"/>
<text text-anchor="middle" x="381.67" y="-366" font-family="Vera Sans, DejaVu Sans, Liberation Sans, Arial, Helvetica, sans" font-size="10.00">ResonanceCircle</text>
</a>
</g>
</g>
<!-- _Model&#45;&gt;ResonanceCircle -->
<g id="edge28" class="edge">
<title>_Model&#45;&gt;ResonanceCircle</title>
<path fill="none" stroke="black" stroke-width="0.5" d="M182.7,-234.05C198.22,-257.5 243.3,-320.51 297.8,-351 307.72,-356.55 319.19,-360.38 330.37,-363.04"/>
<polygon fill="black" stroke="black" stroke-width="0.5" points="330.22,-364.8 335.48,-364.18 330.98,-361.38 330.22,-364.8"/>
</g>
<!-- ResonanceCircleComplex -->
<g id="node21" class="node">
<title>ResonanceCircleComplex</title>
<g id="a_node21"><a xlink:href="../../api/kidsproc.kidsmodel.ResonanceCircleComplex.html#kidsproc.kidsmodel.ResonanceCircleComplex" xlink:title="Model that describes the resonance circle of KIDs in complex plane." target="_top">
<polygon fill="none" stroke="black" stroke-width="0.5" points="447.27,-126 316.06,-126 316.06,-108 447.27,-108 447.27,-126"/>
<text text-anchor="middle" x="381.67" y="-114" font-family="Vera Sans, DejaVu Sans, Liberation Sans, Arial, Helvetica, sans" font-size="10.00">ResonanceCircleComplex</text>
</a>
</g>
</g>
<!-- _Model&#45;&gt;ResonanceCircleComplex -->
<g id="edge30" class="edge">
<title>_Model&#45;&gt;ResonanceCircleComplex</title>
<path fill="none" stroke="black" stroke-width="0.5" d="M186.02,-215.99C205.05,-197.71 251.12,-156.24 297.8,-135 304.33,-132.03 311.38,-129.54 318.52,-127.45"/>
<polygon fill="black" stroke="black" stroke-width="0.5" points="319.12,-129.1 323.46,-126.07 318.18,-125.73 319.12,-129.1"/>
</g>
<!-- ResonanceCircleComplexInv -->
<g id="node23" class="node">
<title>ResonanceCircleComplexInv</title>
<g id="a_node23"><a xlink:href="../../api/kidsproc.kidsmodel.ResonanceCircleComplexInv.html#kidsproc.kidsmodel.ResonanceCircleComplexInv" xlink:title="Inversion of `ResonanceCircleComplex`." target="_top">
<polygon fill="none" stroke="black" stroke-width="0.5" points="454.11,-90 309.22,-90 309.22,-72 454.11,-72 454.11,-90"/>
<text text-anchor="middle" x="381.67" y="-78" font-family="Vera Sans, DejaVu Sans, Liberation Sans, Arial, Helvetica, sans" font-size="10.00">ResonanceCircleComplexInv</text>
</a>
</g>
</g>
<!-- _Model&#45;&gt;ResonanceCircleComplexInv -->
<g id="edge32" class="edge">
<title>_Model&#45;&gt;ResonanceCircleComplexInv</title>
<path fill="none" stroke="black" stroke-width="0.5" d="M182.7,-215.95C198.22,-192.5 243.3,-129.49 297.8,-99 302.92,-96.14 308.45,-93.73 314.15,-91.7"/>
<polygon fill="black" stroke="black" stroke-width="0.5" points="314.78,-93.34 318.96,-90.09 313.67,-90.02 314.78,-93.34"/>
</g>
<!-- ResonanceCircleInv -->
<g id="node24" class="node">
<title>ResonanceCircleInv</title>
<g id="a_node24"><a xlink:href="../../api/kidsproc.kidsmodel.ResonanceCircleInv.html#kidsproc.kidsmodel.ResonanceCircleInv" xlink:title="Inversion of `ResonanceCircle`." target="_top">
<polygon fill="none" stroke="black" stroke-width="0.5" points="434.65,-342 328.68,-342 328.68,-324 434.65,-324 434.65,-342"/>
<text text-anchor="middle" x="381.67" y="-330" font-family="Vera Sans, DejaVu Sans, Liberation Sans, Arial, Helvetica, sans" font-size="10.00">ResonanceCircleInv</text>
</a>
</g>
</g>
<!-- _Model&#45;&gt;ResonanceCircleInv -->
<g id="edge34" class="edge">
<title>_Model&#45;&gt;ResonanceCircleInv</title>
<path fill="none" stroke="black" stroke-width="0.5" d="M186.02,-234.01C205.05,-252.29 251.12,-293.76 297.8,-315 305.94,-318.7 314.88,-321.66 323.79,-324.02"/>
<polygon fill="black" stroke="black" stroke-width="0.5" points="323.45,-325.74 328.73,-325.27 324.31,-322.35 323.45,-325.74"/>
</g>
<!-- ResonanceCircleQr -->
<g id="node27" class="node">
<title>ResonanceCircleQr</title>
<g id="a_node27"><a xlink:href="../../api/kidsproc.kidsmodel.ResonanceCircleQr.html#kidsproc.kidsmodel.ResonanceCircleQr" xlink:title="Model that describes the relation of `r` and `Qr`." target="_top">
<polygon fill="none" stroke="black" stroke-width="0.5" points="433.42,-54 329.91,-54 329.91,-36 433.42,-36 433.42,-54"/>
<text text-anchor="middle" x="381.67" y="-42" font-family="Vera Sans, DejaVu Sans, Liberation Sans, Arial, Helvetica, sans" font-size="10.00">ResonanceCircleQr</text>
</a>
</g>
</g>
<!-- _Model&#45;&gt;ResonanceCircleQr -->
<g id="edge42" class="edge">
<title>_Model&#45;&gt;ResonanceCircleQr</title>
<path fill="none" stroke="black" stroke-width="0.5" d="M180.84,-215.86C193.38,-187.94 235.24,-103.26 297.8,-63 305.92,-57.78 315.31,-54.05 324.8,-51.39"/>
<polygon fill="black" stroke="black" stroke-width="0.5" points="325.37,-53.05 329.76,-50.1 324.48,-49.67 325.37,-53.05"/>
</g>
<!-- ResonanceCircleQrInv -->
<g id="node28" class="node">
<title>ResonanceCircleQrInv</title>
<g id="a_node28"><a xlink:href="../../api/kidsproc.kidsmodel.ResonanceCircleQrInv.html#kidsproc.kidsmodel.ResonanceCircleQrInv" xlink:title="Inversion of `ResonanceCircleQr`" target="_top">
<polygon fill="none" stroke="black" stroke-width="0.5" points="439.76,-18 323.57,-18 323.57,0 439.76,0 439.76,-18"/>
<text text-anchor="middle" x="381.67" y="-6" font-family="Vera Sans, DejaVu Sans, Liberation Sans, Arial, Helvetica, sans" font-size="10.00">ResonanceCircleQrInv</text>
</a>
</g>
</g>
<!-- _Model&#45;&gt;ResonanceCircleQrInv -->
<g id="edge44" class="edge">
<title>_Model&#45;&gt;ResonanceCircleQrInv</title>
<path fill="none" stroke="black" stroke-width="0.5" d="M182.25,-215.79C204.46,-177.62 288.69,-33.48 297.8,-27 303.94,-22.63 310.94,-19.29 318.21,-16.74"/>
<polygon fill="black" stroke="black" stroke-width="0.5" points="319.06,-18.31 323.27,-15.1 317.98,-14.98 319.06,-18.31"/>
</g>
<!-- KidsProbeGainWithGeometry -->
<g id="node3" class="node">
<title>KidsProbeGainWithGeometry</title>
<g id="a_node3"><a xlink:href="../../api/kidsproc.kidsmodel.KidsProbeGainWithGeometry.html#kidsproc.kidsmodel.KidsProbeGainWithGeometry" xlink:title="Model that describes the S21 probed at fixed frequencies with" target="_top">
<polygon fill="none" stroke="black" stroke-width="0.5" points="656.28,-486 508.96,-486 508.96,-468 656.28,-468 656.28,-486"/>
<text text-anchor="middle" x="582.62" y="-474" font-family="Vera Sans, DejaVu Sans, Liberation Sans, Arial, Helvetica, sans" font-size="10.00">KidsProbeGainWithGeometry</text>
</a>
</g>
</g>
<!-- _ResonanceCircleProbeMixin -->
<g id="node4" class="node">
<title>_ResonanceCircleProbeMixin</title>
<g id="a_node4"><a xlink:title="Mixin class that sets up the probing model.">
<polygon fill="none" stroke="black" stroke-width="0.5" points="455.39,-486 307.94,-486 307.94,-468 455.39,-468 455.39,-486"/>
<text text-anchor="middle" x="381.67" y="-474" font-family="Vera Sans, DejaVu Sans, Liberation Sans, Arial, Helvetica, sans" font-size="10.00">_ResonanceCircleProbeMixin</text>
</a>
</g>
</g>
<!-- _ResonanceCircleProbeMixin&#45;&gt;KidsProbeGainWithGeometry -->
<g id="edge2" class="edge">
<title>_ResonanceCircleProbeMixin&#45;&gt;KidsProbeGainWithGeometry</title>
<path fill="none" stroke="black" stroke-width="0.5" d="M455.62,-477C471.26,-477 487.85,-477 503.67,-477"/>
<polygon fill="black" stroke="black" stroke-width="0.5" points="504.01,-478.75 509.01,-477 504.01,-475.25 504.01,-478.75"/>
</g>
<!-- KidsProbeGainWithLinTrend -->
<g id="node9" class="node">
<title>KidsProbeGainWithLinTrend</title>
<g id="a_node9"><a xlink:href="../../api/kidsproc.kidsmodel.KidsProbeGainWithLinTrend.html#kidsproc.kidsmodel.KidsProbeGainWithLinTrend" xlink:title="Model that describes the S21 probed at fixed frequencies with" target="_top">
<polygon fill="none" stroke="black" stroke-width="0.5" points="653.98,-450 511.26,-450 511.26,-432 653.98,-432 653.98,-450"/>
<text text-anchor="middle" x="582.62" y="-438" font-family="Vera Sans, DejaVu Sans, Liberation Sans, Arial, Helvetica, sans" font-size="10.00">KidsProbeGainWithLinTrend</text>
</a>
</g>
</g>
<!-- _ResonanceCircleProbeMixin&#45;&gt;KidsProbeGainWithLinTrend -->
<g id="edge7" class="edge">
<title>_ResonanceCircleProbeMixin&#45;&gt;KidsProbeGainWithLinTrend</title>
<path fill="none" stroke="black" stroke-width="0.5" d="M432.61,-467.96C461.23,-462.78 497.19,-456.28 526.61,-450.95"/>
<polygon fill="black" stroke="black" stroke-width="0.5" points="527.04,-452.65 531.65,-450.04 526.42,-449.21 527.04,-452.65"/>
</g>
<!-- ResonanceCircleProbe -->
<g id="node25" class="node">
<title>ResonanceCircleProbe</title>
<g id="a_node25"><a xlink:href="../../api/kidsproc.kidsmodel.ResonanceCircleProbe.html#kidsproc.kidsmodel.ResonanceCircleProbe" xlink:title="Model that describes the probing of The resonance circle." target="_top">
<polygon fill="none" stroke="black" stroke-width="0.5" points="641.95,-234 523.29,-234 523.29,-216 641.95,-216 641.95,-234"/>
<text text-anchor="middle" x="582.62" y="-222" font-family="Vera Sans, DejaVu Sans, Liberation Sans, Arial, Helvetica, sans" font-size="10.00">ResonanceCircleProbe</text>
</a>
</g>
</g>
<!-- _ResonanceCircleProbeMixin&#45;&gt;ResonanceCircleProbe -->
<g id="edge35" class="edge">
<title>_ResonanceCircleProbeMixin&#45;&gt;ResonanceCircleProbe</title>
<path fill="none" stroke="black" stroke-width="0.5" d="M454.13,-467.83C458.32,-465.43 462.18,-462.52 465.53,-459 532.65,-388.52 434.66,-313.72 501.53,-243 506.21,-238.05 511.94,-234.32 518.16,-231.53"/>
<polygon fill="black" stroke="black" stroke-width="0.5" points="519.02,-233.07 523,-229.57 517.71,-229.82 519.02,-233.07"/>
</g>
<!-- ResonanceCircleProbeComplex -->
<g id="node26" class="node">
<title>ResonanceCircleProbeComplex</title>
<g id="a_node26"><a xlink:href="../../api/kidsproc.kidsmodel.ResonanceCircleProbeComplex.html#kidsproc.kidsmodel.ResonanceCircleProbeComplex" xlink:title="The same as `ResonanceCircleProbe`, but the result is the complex S21." target="_top">
<polygon fill="none" stroke="black" stroke-width="0.5" points="661.91,-378 503.33,-378 503.33,-360 661.91,-360 661.91,-378"/>
<text text-anchor="middle" x="582.62" y="-366" font-family="Vera Sans, DejaVu Sans, Liberation Sans, Arial, Helvetica, sans" font-size="10.00">ResonanceCircleProbeComplex</text>
</a>
</g>
</g>
<!-- _ResonanceCircleProbeMixin&#45;&gt;ResonanceCircleProbeComplex -->
<g id="edge38" class="edge">
<title>_ResonanceCircleProbeMixin&#45;&gt;ResonanceCircleProbeComplex</title>
<path fill="none" stroke="black" stroke-width="0.5" d="M450.16,-467.9C455.66,-465.54 460.88,-462.61 465.53,-459 493.78,-437.05 473.36,-409.05 501.53,-387 504.84,-384.41 508.44,-382.18 512.24,-380.26"/>
<polygon fill="black" stroke="black" stroke-width="0.5" points="512.98,-381.84 516.77,-378.14 511.5,-378.67 512.98,-381.84"/>
</g>
<!-- _ReadoutReprComplexMixin -->
<g id="node5" class="node">
<title>_ReadoutReprComplexMixin</title>
<g id="a_node5"><a xlink:title="Mixin class that sets the output to use complex S21.">
<polygon fill="none" stroke="black" stroke-width="0.5" points="453.5,-414 309.83,-414 309.83,-396 453.5,-396 453.5,-414"/>
<text text-anchor="middle" x="381.67" y="-402" font-family="Vera Sans, DejaVu Sans, Liberation Sans, Arial, Helvetica, sans" font-size="10.00">_ReadoutReprComplexMixin</text>
</a>
</g>
</g>
<!-- _ReadoutReprComplexMixin&#45;&gt;KidsProbeGainWithGeometry -->
<g id="edge3" class="edge">
<title>_ReadoutReprComplexMixin&#45;&gt;KidsProbeGainWithGeometry</title>
<path fill="none" stroke="black" stroke-width="0.5" d="M443.86,-414.09C451.4,-416.41 458.81,-419.33 465.53,-423 485.39,-433.84 481.71,-448.09 501.53,-459 506.8,-461.9 512.5,-464.33 518.36,-466.37"/>
<polygon fill="black" stroke="black" stroke-width="0.5" points="518.01,-468.1 523.31,-468 519.1,-464.78 518.01,-468.1"/>
</g>
<!-- _ReadoutReprComplexMixin&#45;&gt;KidsProbeGainWithLinTrend -->
<g id="edge8" class="edge">
<title>_ReadoutReprComplexMixin&#45;&gt;KidsProbeGainWithLinTrend</title>
<path fill="none" stroke="black" stroke-width="0.5" d="M432.61,-414.04C461.23,-419.22 497.19,-425.72 526.61,-431.05"/>
<polygon fill="black" stroke="black" stroke-width="0.5" points="526.42,-432.79 531.65,-431.96 527.04,-429.35 526.42,-432.79"/>
</g>
<!-- KidsSweepGainWithGeometry -->
<g id="node11" class="node">
<title>KidsSweepGainWithGeometry</title>
<g id="a_node11"><a xlink:href="../../api/kidsproc.kidsmodel.KidsSweepGainWithGeometry.html#kidsproc.kidsmodel.KidsSweepGainWithGeometry" xlink:title="Model that describes the S21 for frequency sweep with the geometry" target="_top">
<polygon fill="none" stroke="black" stroke-width="0.5" points="658.17,-414 507.07,-414 507.07,-396 658.17,-396 658.17,-414"/>
<text text-anchor="middle" x="582.62" y="-402" font-family="Vera Sans, DejaVu Sans, Liberation Sans, Arial, Helvetica, sans" font-size="10.00">KidsSweepGainWithGeometry</text>
</a>
</g>
</g>
<!-- _ReadoutReprComplexMixin&#45;&gt;KidsSweepGainWithGeometry -->
<g id="edge13" class="edge">
<title>_ReadoutReprComplexMixin&#45;&gt;KidsSweepGainWithGeometry</title>
<path fill="none" stroke="black" stroke-width="0.5" d="M453.65,-405C469.19,-405 485.74,-405 501.61,-405"/>
<polygon fill="black" stroke="black" stroke-width="0.5" points="501.96,-406.75 506.96,-405 501.96,-403.25 501.96,-406.75"/>
</g>
<!-- KidsSweepGainWithLinTrend -->
<g id="node13" class="node">
<title>KidsSweepGainWithLinTrend</title>
<g id="a_node13"><a xlink:href="../../api/kidsproc.kidsmodel.KidsSweepGainWithLinTrend.html#kidsproc.kidsmodel.KidsSweepGainWithLinTrend" xlink:title="Model that describes the S21 for frequency sweep with" target="_top">
<polygon fill="none" stroke="black" stroke-width="0.5" points="655.87,-342 509.37,-342 509.37,-324 655.87,-324 655.87,-342"/>
<text text-anchor="middle" x="582.62" y="-330" font-family="Vera Sans, DejaVu Sans, Liberation Sans, Arial, Helvetica, sans" font-size="10.00">KidsSweepGainWithLinTrend</text>
</a>
</g>
</g>
<!-- _ReadoutReprComplexMixin&#45;&gt;KidsSweepGainWithLinTrend -->
<g id="edge18" class="edge">
<title>_ReadoutReprComplexMixin&#45;&gt;KidsSweepGainWithLinTrend</title>
<path fill="none" stroke="black" stroke-width="0.5" d="M443.86,-395.91C451.4,-393.59 458.81,-390.67 465.53,-387 485.39,-376.16 481.71,-361.91 501.53,-351 506.8,-348.1 512.5,-345.67 518.36,-343.63"/>
<polygon fill="black" stroke="black" stroke-width="0.5" points="519.1,-345.22 523.31,-342 518.01,-341.9 519.1,-345.22"/>
</g>
<!-- ReadoutIQToComplex -->
<g id="node18" class="node">
<title>ReadoutIQToComplex</title>
<g id="a_node18"><a xlink:href="../../api/kidsproc.kidsmodel.ReadoutIQToComplex.html#kidsproc.kidsmodel.ReadoutIQToComplex" xlink:title="Utility model to convert from (I, Q) to complex S21." target="_top">
<polygon fill="none" stroke="black" stroke-width="0.5" points="640,-306 525.24,-306 525.24,-288 640,-288 640,-306"/>
<text text-anchor="middle" x="582.62" y="-294" font-family="Vera Sans, DejaVu Sans, Liberation Sans, Arial, Helvetica, sans" font-size="10.00">ReadoutIQToComplex</text>
</a>
</g>
</g>
<!-- _ReadoutReprComplexMixin&#45;&gt;ReadoutIQToComplex -->
<g id="edge25" class="edge">
<title>_ReadoutReprComplexMixin&#45;&gt;ReadoutIQToComplex</title>
<path fill="none" stroke="black" stroke-width="0.5" d="M450.16,-395.9C455.66,-393.54 460.88,-390.61 465.53,-387 493.78,-365.05 473.36,-337.05 501.53,-315 507.18,-310.58 513.71,-307.19 520.55,-304.62"/>
<polygon fill="black" stroke="black" stroke-width="0.5" points="521.18,-306.25 525.33,-302.96 520.04,-302.95 521.18,-306.25"/>
</g>
<!-- _ReadoutReprComplexMixin&#45;&gt;ResonanceCircleProbeComplex -->
<g id="edge39" class="edge">
<title>_ReadoutReprComplexMixin&#45;&gt;ResonanceCircleProbeComplex</title>
<path fill="none" stroke="black" stroke-width="0.5" d="M432.61,-395.96C461.23,-390.78 497.19,-384.28 526.61,-378.95"/>
<polygon fill="black" stroke="black" stroke-width="0.5" points="527.04,-380.65 531.65,-378.04 526.42,-377.21 527.04,-380.65"/>
</g>
<!-- ResonanceCircleSweepComplex -->
<g id="node30" class="node">
<title>ResonanceCircleSweepComplex</title>
<g id="a_node30"><a xlink:href="../../api/kidsproc.kidsmodel.ResonanceCircleSweepComplex.html#kidsproc.kidsmodel.ResonanceCircleSweepComplex" xlink:title="The same as `ResonanceCircleSweep`, but the result is the complex S21." target="_top">
<polygon fill="none" stroke="black" stroke-width="0.5" points="663.8,-270 501.44,-270 501.44,-252 663.8,-252 663.8,-270"/>
<text text-anchor="middle" x="582.62" y="-258" font-family="Vera Sans, DejaVu Sans, Liberation Sans, Arial, Helvetica, sans" font-size="10.00">ResonanceCircleSweepComplex</text>
</a>
</g>
</g>
<!-- _ReadoutReprComplexMixin&#45;&gt;ResonanceCircleSweepComplex -->
<g id="edge49" class="edge">
<title>_ReadoutReprComplexMixin&#45;&gt;ResonanceCircleSweepComplex</title>
<path fill="none" stroke="black" stroke-width="0.5" d="M452.34,-395.81C457.11,-393.44 461.59,-390.54 465.53,-387 503.18,-353.2 464,-312.93 501.53,-279 504.29,-276.5 507.32,-274.33 510.54,-272.44"/>
<polygon fill="black" stroke="black" stroke-width="0.5" points="511.46,-273.93 515.04,-270.03 509.81,-270.85 511.46,-273.93"/>
</g>
<!-- _KidsReadoutMixin -->
<g id="node6" class="node">
<title>_KidsReadoutMixin</title>
<g id="a_node6"><a xlink:title="Mixin class that defines some utility functions for readout models.">
<polygon fill="none" stroke="black" stroke-width="0.5" points="432.82,-522 330.51,-522 330.51,-504 432.82,-504 432.82,-522"/>
<text text-anchor="middle" x="381.67" y="-510" font-family="Vera Sans, DejaVu Sans, Liberation Sans, Arial, Helvetica, sans" font-size="10.00">_KidsReadoutMixin</text>
</a>
</g>
</g>
<!-- _KidsReadoutMixin&#45;&gt;KidsProbeGainWithGeometry -->
<g id="edge4" class="edge">
<title>_KidsReadoutMixin&#45;&gt;KidsProbeGainWithGeometry</title>
<path fill="none" stroke="black" stroke-width="0.5" d="M432.61,-503.96C461.23,-498.78 497.19,-492.28 526.61,-486.95"/>
<polygon fill="black" stroke="black" stroke-width="0.5" points="527.04,-488.65 531.65,-486.04 526.42,-485.21 527.04,-488.65"/>
</g>
<!-- _KidsReadoutMixin&#45;&gt;KidsProbeGainWithLinTrend -->
<g id="edge9" class="edge">
<title>_KidsReadoutMixin&#45;&gt;KidsProbeGainWithLinTrend</title>
<path fill="none" stroke="black" stroke-width="0.5" d="M432.96,-506.87C444.12,-504.22 455.58,-500.43 465.53,-495 485.39,-484.16 481.71,-469.91 501.53,-459 506.8,-456.1 512.5,-453.67 518.36,-451.63"/>
<polygon fill="black" stroke="black" stroke-width="0.5" points="519.1,-453.22 523.31,-450 518.01,-449.9 519.1,-453.22"/>
</g>
<!-- _KidsReadoutMixin&#45;&gt;KidsSweepGainWithGeometry -->
<g id="edge14" class="edge">
<title>_KidsReadoutMixin&#45;&gt;KidsSweepGainWithGeometry</title>
<path fill="none" stroke="black" stroke-width="0.5" d="M433.12,-509.42C444.65,-506.69 456.23,-502.23 465.53,-495 493.78,-473.05 473.36,-445.05 501.53,-423 504.84,-420.41 508.44,-418.18 512.24,-416.26"/>
<polygon fill="black" stroke="black" stroke-width="0.5" points="512.98,-417.84 516.77,-414.14 511.5,-414.67 512.98,-417.84"/>
</g>
<!-- _KidsReadoutMixin&#45;&gt;KidsSweepGainWithLinTrend -->
<g id="edge19" class="edge">
<title>_KidsReadoutMixin&#45;&gt;KidsSweepGainWithLinTrend</title>
<path fill="none" stroke="black" stroke-width="0.5" d="M433.03,-511.1C444.96,-508.39 456.76,-503.5 465.53,-495 512.9,-449.08 454.33,-397.09 501.53,-351 503.94,-348.65 506.58,-346.58 509.4,-344.75"/>
<polygon fill="black" stroke="black" stroke-width="0.5" points="510.53,-346.12 513.97,-342.09 508.77,-343.1 510.53,-346.12"/>
</g>
<!-- _ReadoutGainWithGeometryMixin -->
<g id="node7" class="node">
<title>_ReadoutGainWithGeometryMixin</title>
<g id="a_node7"><a xlink:title="Mixin class that defines readout transform of S21 using the">
<polygon fill="none" stroke="black" stroke-width="0.5" points="465.39,-558 297.94,-558 297.94,-540 465.39,-540 465.39,-558"/>
<text text-anchor="middle" x="381.67" y="-546" font-family="Vera Sans, DejaVu Sans, Liberation Sans, Arial, Helvetica, sans" font-size="10.00">_ReadoutGainWithGeometryMixin</text>
</a>
</g>
</g>
<!-- _ReadoutGainWithGeometryMixin&#45;&gt;KidsProbeGainWithGeometry -->
<g id="edge5" class="edge">
<title>_ReadoutGainWithGeometryMixin&#45;&gt;KidsProbeGainWithGeometry</title>
<path fill="none" stroke="black" stroke-width="0.5" d="M433.1,-539.91C443.92,-537.44 455.2,-534.47 465.53,-531 499.95,-519.42 537.72,-500.62 560.54,-488.54"/>
<polygon fill="black" stroke="black" stroke-width="0.5" points="561.59,-489.97 565.18,-486.07 559.95,-486.88 561.59,-489.97"/>
</g>
<!-- _ReadoutGainWithGeometryMixin&#45;&gt;KidsSweepGainWithGeometry -->
<g id="edge15" class="edge">
<title>_ReadoutGainWithGeometryMixin&#45;&gt;KidsSweepGainWithGeometry</title>
<path fill="none" stroke="black" stroke-width="0.5" d="M452.34,-539.81C457.11,-537.44 461.59,-534.54 465.53,-531 503.18,-497.2 464,-456.93 501.53,-423 504.29,-420.5 507.32,-418.33 510.54,-416.44"/>
<polygon fill="black" stroke="black" stroke-width="0.5" points="511.46,-417.93 515.04,-414.03 509.81,-414.85 511.46,-417.93"/>
</g>
<!-- _ComposableModelBase&#45;&gt;KidsProbeGainWithGeometry -->
<g id="edge6" class="edge">
<title>_ComposableModelBase&#45;&gt;KidsProbeGainWithGeometry</title>
<path fill="none" stroke="black" stroke-width="0.5" d="M445.78,-230.18C453.19,-233.11 460.05,-237.24 465.53,-243 532.65,-313.48 434.66,-388.28 501.53,-459 503.61,-461.2 505.9,-463.16 508.34,-464.9"/>
<polygon fill="black" stroke="black" stroke-width="0.5" points="507.75,-466.6 512.9,-467.81 509.63,-463.65 507.75,-466.6"/>
</g>
<!-- _ComposableModelBase&#45;&gt;KidsProbeGainWithLinTrend -->
<g id="edge11" class="edge">
<title>_ComposableModelBase&#45;&gt;KidsProbeGainWithLinTrend</title>
<path fill="none" stroke="black" stroke-width="0.5" d="M445.61,-230.35C453.04,-233.26 459.95,-237.33 465.53,-243 522.74,-301.16 444.53,-364.63 501.53,-423 503.82,-425.34 506.34,-427.41 509.03,-429.23"/>
<polygon fill="black" stroke="black" stroke-width="0.5" points="508.22,-430.79 513.4,-431.9 510.05,-427.8 508.22,-430.79"/>
</g>
<!-- _ComposableModelBase&#45;&gt;KidsSweepGainWithGeometry -->
<g id="edge16" class="edge">
<title>_ComposableModelBase&#45;&gt;KidsSweepGainWithGeometry</title>
<path fill="none" stroke="black" stroke-width="0.5" d="M445.78,-230.76C453.09,-233.62 459.93,-237.57 465.53,-243 512.9,-288.92 454.33,-340.91 501.53,-387 503.94,-389.35 506.58,-391.42 509.4,-393.25"/>
<polygon fill="black" stroke="black" stroke-width="0.5" points="508.77,-394.9 513.97,-395.91 510.53,-391.88 508.77,-394.9"/>
</g>
<!-- _ComposableModelBase&#45;&gt;KidsSweepGainWithLinTrend -->
<g id="edge21" class="edge">
<title>_ComposableModelBase&#45;&gt;KidsSweepGainWithLinTrend</title>
<path fill="none" stroke="black" stroke-width="0.5" d="M445.57,-232.28C452.75,-234.91 459.6,-238.39 465.53,-243 493.78,-264.95 473.36,-292.95 501.53,-315 504.84,-317.59 508.44,-319.82 512.24,-321.74"/>
<polygon fill="black" stroke="black" stroke-width="0.5" points="511.5,-323.33 516.77,-323.86 512.98,-320.16 511.5,-323.33"/>
</g>
<!-- ReadoutComplexToIQ -->
<g id="node16" class="node">
<title>ReadoutComplexToIQ</title>
<g id="a_node16"><a xlink:href="../../api/kidsproc.kidsmodel.ReadoutComplexToIQ.html#kidsproc.kidsmodel.ReadoutComplexToIQ" xlink:title="Utility model to convert from complex S21 to (I, Q)." target="_top">
<polygon fill="none" stroke="black" stroke-width="0.5" points="640,-162 525.24,-162 525.24,-144 640,-144 640,-162"/>
<text text-anchor="middle" x="582.62" y="-150" font-family="Vera Sans, DejaVu Sans, Liberation Sans, Arial, Helvetica, sans" font-size="10.00">ReadoutComplexToIQ</text>
</a>
</g>
</g>
<!-- _ComposableModelBase&#45;&gt;ReadoutComplexToIQ -->
<g id="edge24" class="edge">
<title>_ComposableModelBase&#45;&gt;ReadoutComplexToIQ</title>
<path fill="none" stroke="black" stroke-width="0.5" d="M443.86,-215.91C451.4,-213.59 458.81,-210.67 465.53,-207 485.39,-196.16 481.71,-181.91 501.53,-171 507.4,-167.77 513.81,-165.12 520.38,-162.94"/>
<polygon fill="black" stroke="black" stroke-width="0.5" points="521.16,-164.53 525.42,-161.37 520.12,-161.19 521.16,-164.53"/>
</g>
<!-- _ComposableModelBase&#45;&gt;ReadoutIQToComplex -->
<g id="edge26" class="edge">
<title>_ComposableModelBase&#45;&gt;ReadoutIQToComplex</title>
<path fill="none" stroke="black" stroke-width="0.5" d="M443.86,-234.09C451.4,-236.41 458.81,-239.33 465.53,-243 485.39,-253.84 481.71,-268.09 501.53,-279 507.4,-282.23 513.81,-284.88 520.38,-287.06"/>
<polygon fill="black" stroke="black" stroke-width="0.5" points="520.12,-288.81 525.42,-288.63 521.16,-285.47 520.12,-288.81"/>
</g>
<!-- _ComposableModelBase&#45;&gt;ResonanceCircleProbe -->
<g id="edge37" class="edge">
<title>_ComposableModelBase&#45;&gt;ResonanceCircleProbe</title>
<path fill="none" stroke="black" stroke-width="0.5" d="M445.62,-225C468.69,-225 494.81,-225 517.94,-225"/>
<polygon fill="black" stroke="black" stroke-width="0.5" points="518.14,-226.75 523.14,-225 518.14,-223.25 518.14,-226.75"/>
</g>
<!-- _ComposableModelBase&#45;&gt;ResonanceCircleProbeComplex -->
<g id="edge40" class="edge">
<title>_ComposableModelBase&#45;&gt;ResonanceCircleProbeComplex</title>
<path fill="none" stroke="black" stroke-width="0.5" d="M445.81,-231.33C453.03,-234.11 459.83,-237.89 465.53,-243 503.18,-276.8 464,-317.07 501.53,-351 504.29,-353.5 507.32,-355.67 510.54,-357.56"/>
<polygon fill="black" stroke="black" stroke-width="0.5" points="509.81,-359.15 515.04,-359.97 511.46,-356.07 509.81,-359.15"/>
</g>
<!-- ResonanceCircleSweep -->
<g id="node29" class="node">
<title>ResonanceCircleSweep</title>
<g id="a_node29"><a xlink:href="../../api/kidsproc.kidsmodel.ResonanceCircleSweep.html#kidsproc.kidsmodel.ResonanceCircleSweep" xlink:title="Model that describes the frequency sweep of The resonance circle." target="_top">
<polygon fill="none" stroke="black" stroke-width="0.5" points="643.84,-198 521.4,-198 521.4,-180 643.84,-180 643.84,-198"/>
<text text-anchor="middle" x="582.62" y="-186" font-family="Vera Sans, DejaVu Sans, Liberation Sans, Arial, Helvetica, sans" font-size="10.00">ResonanceCircleSweep</text>
</a>
</g>
</g>
<!-- _ComposableModelBase&#45;&gt;ResonanceCircleSweep -->
<g id="edge47" class="edge">
<title>_ComposableModelBase&#45;&gt;ResonanceCircleSweep</title>
<path fill="none" stroke="black" stroke-width="0.5" d="M432.61,-215.96C461.23,-210.78 497.19,-204.28 526.61,-198.95"/>
<polygon fill="black" stroke="black" stroke-width="0.5" points="527.04,-200.65 531.65,-198.04 526.42,-197.21 527.04,-200.65"/>
</g>
<!-- _ComposableModelBase&#45;&gt;ResonanceCircleSweepComplex -->
<g id="edge50" class="edge">
<title>_ComposableModelBase&#45;&gt;ResonanceCircleSweepComplex</title>
<path fill="none" stroke="black" stroke-width="0.5" d="M432.61,-234.04C461.23,-239.22 497.19,-245.72 526.61,-251.05"/>
<polygon fill="black" stroke="black" stroke-width="0.5" points="526.42,-252.79 531.65,-251.96 527.04,-249.35 526.42,-252.79"/>
</g>
<!-- _ReadoutGainWithLinTrendMixin -->
<g id="node10" class="node">
<title>_ReadoutGainWithLinTrendMixin</title>
<g id="a_node10"><a xlink:title="Mixin class that defines readout transform of S21 using an effective">
<polygon fill="none" stroke="black" stroke-width="0.5" points="463.09,-450 300.24,-450 300.24,-432 463.09,-432 463.09,-450"/>
<text text-anchor="middle" x="381.67" y="-438" font-family="Vera Sans, DejaVu Sans, Liberation Sans, Arial, Helvetica, sans" font-size="10.00">_ReadoutGainWithLinTrendMixin</text>
</a>
</g>
</g>
<!-- _ReadoutGainWithLinTrendMixin&#45;&gt;KidsProbeGainWithLinTrend -->
<g id="edge10" class="edge">
<title>_ReadoutGainWithLinTrendMixin&#45;&gt;KidsProbeGainWithLinTrend</title>
<path fill="none" stroke="black" stroke-width="0.5" d="M463.3,-441C477.5,-441 492.23,-441 506.28,-441"/>
<polygon fill="black" stroke="black" stroke-width="0.5" points="506.42,-442.75 511.42,-441 506.42,-439.25 506.42,-442.75"/>
</g>
<!-- _ReadoutGainWithLinTrendMixin&#45;&gt;KidsSweepGainWithLinTrend -->
<g id="edge20" class="edge">
<title>_ReadoutGainWithLinTrendMixin&#45;&gt;KidsSweepGainWithLinTrend</title>
<path fill="none" stroke="black" stroke-width="0.5" d="M450.16,-431.9C455.66,-429.54 460.88,-426.61 465.53,-423 493.78,-401.05 473.36,-373.05 501.53,-351 504.84,-348.41 508.44,-346.18 512.24,-344.26"/>
<polygon fill="black" stroke="black" stroke-width="0.5" points="512.98,-345.84 516.77,-342.14 511.5,-342.67 512.98,-345.84"/>
</g>
<!-- _ResonanceCircleSweepMixin -->
<g id="node12" class="node">
<title>_ResonanceCircleSweepMixin</title>
<g id="a_node12"><a xlink:title="Mixin class that sets up the frequency sweep model.">
<polygon fill="none" stroke="black" stroke-width="0.5" points="457.29,-198 306.04,-198 306.04,-180 457.29,-180 457.29,-198"/>
<text text-anchor="middle" x="381.67" y="-186" font-family="Vera Sans, DejaVu Sans, Liberation Sans, Arial, Helvetica, sans" font-size="10.00">_ResonanceCircleSweepMixin</text>
</a>
</g>
</g>
<!-- _ResonanceCircleSweepMixin&#45;&gt;KidsSweepGainWithGeometry -->
<g id="edge12" class="edge">
<title>_ResonanceCircleSweepMixin&#45;&gt;KidsSweepGainWithGeometry</title>
<path fill="none" stroke="black" stroke-width="0.5" d="M453.61,-198.08C457.98,-200.49 462.02,-203.43 465.53,-207 522.74,-265.16 444.53,-328.63 501.53,-387 503.82,-389.34 506.34,-391.41 509.03,-393.23"/>
<polygon fill="black" stroke="black" stroke-width="0.5" points="508.22,-394.79 513.4,-395.9 510.05,-391.8 508.22,-394.79"/>
</g>
<!-- _ResonanceCircleSweepMixin&#45;&gt;KidsSweepGainWithLinTrend -->
<g id="edge17" class="edge">
<title>_ResonanceCircleSweepMixin&#45;&gt;KidsSweepGainWithLinTrend</title>
<path fill="none" stroke="black" stroke-width="0.5" d="M452.34,-198.19C457.11,-200.56 461.59,-203.46 465.53,-207 503.18,-240.8 464,-281.07 501.53,-315 504.29,-317.5 507.32,-319.67 510.54,-321.56"/>
<polygon fill="black" stroke="black" stroke-width="0.5" points="509.81,-323.15 515.04,-323.97 511.46,-320.07 509.81,-323.15"/>
</g>
<!-- _ResonanceCircleSweepMixin&#45;&gt;ResonanceCircleSweep -->
<g id="edge45" class="edge">
<title>_ResonanceCircleSweepMixin&#45;&gt;ResonanceCircleSweep</title>
<path fill="none" stroke="black" stroke-width="0.5" d="M457.31,-189C476.56,-189 497.14,-189 515.9,-189"/>
<polygon fill="black" stroke="black" stroke-width="0.5" points="516.14,-190.75 521.14,-189 516.14,-187.25 516.14,-190.75"/>
</g>
<!-- _ResonanceCircleSweepMixin&#45;&gt;ResonanceCircleSweepComplex -->
<g id="edge48" class="edge">
<title>_ResonanceCircleSweepMixin&#45;&gt;ResonanceCircleSweepComplex</title>
<path fill="none" stroke="black" stroke-width="0.5" d="M443.86,-198.09C451.4,-200.41 458.81,-203.33 465.53,-207 485.39,-217.84 481.71,-232.09 501.53,-243 506.8,-245.9 512.5,-248.33 518.36,-250.37"/>
<polygon fill="black" stroke="black" stroke-width="0.5" points="518.01,-252.1 523.31,-252 519.1,-248.78 518.01,-252.1"/>
</g>
<!-- Model -->
<g id="node14" class="node">
<title>Model</title>
<g id="a_node14"><a xlink:title="Base class for all models.">
<polygon fill="none" stroke="black" stroke-width="0.5" points="54,-234 0,-234 0,-216 54,-216 54,-234"/>
<text text-anchor="middle" x="27" y="-222" font-family="Vera Sans, DejaVu Sans, Liberation Sans, Arial, Helvetica, sans" font-size="10.00">Model</text>
</a>
</g>
</g>
<!-- Model&#45;&gt;_Model -->
<g id="edge52" class="edge">
<title>Model&#45;&gt;_Model</title>
<path fill="none" stroke="black" stroke-width="0.5" d="M54.26,-225C79.33,-225 117.11,-225 143.7,-225"/>
<polygon fill="black" stroke="black" stroke-width="0.5" points="143.86,-226.75 148.86,-225 143.86,-223.25 143.86,-226.75"/>
</g>
<!-- _ReadoutRepr2Mixin -->
<g id="node17" class="node">
<title>_ReadoutRepr2Mixin</title>
<g id="a_node17"><a xlink:title="Mixin class that sets the output to use separate I and Q.">
<polygon fill="none" stroke="black" stroke-width="0.5" points="436.61,-162 326.72,-162 326.72,-144 436.61,-144 436.61,-162"/>
<text text-anchor="middle" x="381.67" y="-150" font-family="Vera Sans, DejaVu Sans, Liberation Sans, Arial, Helvetica, sans" font-size="10.00">_ReadoutRepr2Mixin</text>
</a>
</g>
</g>
<!-- _ReadoutRepr2Mixin&#45;&gt;ReadoutComplexToIQ -->
<g id="edge23" class="edge">
<title>_ReadoutRepr2Mixin&#45;&gt;ReadoutComplexToIQ</title>
<path fill="none" stroke="black" stroke-width="0.5" d="M436.77,-153C462.44,-153 493.25,-153 519.84,-153"/>
<polygon fill="black" stroke="black" stroke-width="0.5" points="520.1,-154.75 525.1,-153 520.1,-151.25 520.1,-154.75"/>
</g>
<!-- _ReadoutRepr2Mixin&#45;&gt;ResonanceCircleProbe -->
<g id="edge36" class="edge">
<title>_ReadoutRepr2Mixin&#45;&gt;ResonanceCircleProbe</title>
<path fill="none" stroke="black" stroke-width="0.5" d="M436.88,-160.1C446.78,-162.69 456.74,-166.2 465.53,-171 485.39,-181.84 481.71,-196.09 501.53,-207 506.8,-209.9 512.5,-212.33 518.36,-214.37"/>
<polygon fill="black" stroke="black" stroke-width="0.5" points="518.01,-216.1 523.31,-216 519.1,-212.78 518.01,-216.1"/>
</g>
<!-- _ReadoutRepr2Mixin&#45;&gt;ResonanceCircleSweep -->
<g id="edge46" class="edge">
<title>_ReadoutRepr2Mixin&#45;&gt;ResonanceCircleSweep</title>
<path fill="none" stroke="black" stroke-width="0.5" d="M432.61,-162.04C461.23,-167.22 497.19,-173.72 526.61,-179.05"/>
<polygon fill="black" stroke="black" stroke-width="0.5" points="526.42,-180.79 531.65,-179.96 527.04,-177.35 526.42,-180.79"/>
</g>
<!-- _ResonanceCircleTransform2Mixin -->
<g id="node20" class="node">
<title>_ResonanceCircleTransform2Mixin</title>
<g id="a_node20"><a xlink:title="Mixin class that defines basic resonance circle transform for">
<polygon fill="none" stroke="black" stroke-width="0.5" points="261.7,-360 90.1,-360 90.1,-342 261.7,-342 261.7,-360"/>
<text text-anchor="middle" x="175.9" y="-348" font-family="Vera Sans, DejaVu Sans, Liberation Sans, Arial, Helvetica, sans" font-size="10.00">_ResonanceCircleTransform2Mixin</text>
</a>
</g>
</g>
<!-- _ResonanceCircleTransform2Mixin&#45;&gt;ResonanceCircle -->
<g id="edge27" class="edge">
<title>_ResonanceCircleTransform2Mixin&#45;&gt;ResonanceCircle</title>
<path fill="none" stroke="black" stroke-width="0.5" d="M261.84,-358.5C285.09,-360.56 309.56,-362.72 330.21,-364.54"/>
<polygon fill="black" stroke="black" stroke-width="0.5" points="330.24,-366.3 335.37,-365 330.54,-362.82 330.24,-366.3"/>
</g>
<!-- _ResonanceCircleTransform2Mixin&#45;&gt;ResonanceCircleInv -->
<g id="edge33" class="edge">
<title>_ResonanceCircleTransform2Mixin&#45;&gt;ResonanceCircleInv</title>
<path fill="none" stroke="black" stroke-width="0.5" d="M261.84,-343.5C282.6,-341.66 304.33,-339.74 323.44,-338.05"/>
<polygon fill="black" stroke="black" stroke-width="0.5" points="323.93,-339.77 328.76,-337.59 323.63,-336.28 323.93,-339.77"/>
</g>
<!-- _ResonanceCircleTransformMixin -->
<g id="node22" class="node">
<title>_ResonanceCircleTransformMixin</title>
<g id="a_node22"><a xlink:title="Mixin class that defines basic resonance circle transform.">
<polygon fill="none" stroke="black" stroke-width="0.5" points="259.14,-72 92.66,-72 92.66,-54 259.14,-54 259.14,-72"/>
<text text-anchor="middle" x="175.9" y="-60" font-family="Vera Sans, DejaVu Sans, Liberation Sans, Arial, Helvetica, sans" font-size="10.00">_ResonanceCircleTransformMixin</text>
</a>
</g>
</g>
<!-- _ResonanceCircleTransformMixin&#45;&gt;ResonanceCircleComplex -->
<g id="edge29" class="edge">
<title>_ResonanceCircleTransformMixin&#45;&gt;ResonanceCircleComplex</title>
<path fill="none" stroke="black" stroke-width="0.5" d="M205.07,-72.04C229.46,-79.72 265.77,-90.77 297.8,-99 308.56,-101.77 320.17,-104.46 331.2,-106.9"/>
<polygon fill="black" stroke="black" stroke-width="0.5" points="330.97,-108.64 336.22,-107.99 331.71,-105.22 330.97,-108.64"/>
</g>
<!-- _ResonanceCircleTransformMixin&#45;&gt;ResonanceCircleComplexInv -->
<g id="edge31" class="edge">
<title>_ResonanceCircleTransformMixin&#45;&gt;ResonanceCircleComplexInv</title>
<path fill="none" stroke="black" stroke-width="0.5" d="M259.19,-70.27C273.95,-71.57 289.27,-72.93 303.87,-74.22"/>
<polygon fill="black" stroke="black" stroke-width="0.5" points="304.07,-75.99 309.21,-74.69 304.38,-72.5 304.07,-75.99"/>
</g>
<!-- _ResonanceCircleTransformMixin&#45;&gt;ResonanceCircleQr -->
<g id="edge41" class="edge">
<title>_ResonanceCircleTransformMixin&#45;&gt;ResonanceCircleQr</title>
<path fill="none" stroke="black" stroke-width="0.5" d="M259.19,-55.73C281.29,-53.78 304.66,-51.71 324.94,-49.92"/>
<polygon fill="black" stroke="black" stroke-width="0.5" points="325.2,-51.66 330.03,-49.47 324.89,-48.17 325.2,-51.66"/>
</g>
<!-- _ResonanceCircleTransformMixin&#45;&gt;ResonanceCircleQrInv -->
<g id="edge43" class="edge">
<title>_ResonanceCircleTransformMixin&#45;&gt;ResonanceCircleQrInv</title>
<path fill="none" stroke="black" stroke-width="0.5" d="M205.07,-53.96C229.46,-46.28 265.77,-35.23 297.8,-27 308.56,-24.23 320.17,-21.54 331.2,-19.1"/>
<polygon fill="black" stroke="black" stroke-width="0.5" points="331.71,-20.78 336.22,-18.01 330.97,-17.36 331.71,-20.78"/>
</g>
<!-- _ReadoutTransformComplexMixin -->
<g id="node31" class="node">
<title>_ReadoutTransformComplexMixin</title>
<g id="a_node31"><a xlink:title="Mixin class that setup the transformation of (I + jQ) due to readout.">
<polygon fill="none" stroke="black" stroke-width="0.5" points="259.76,-504 92.04,-504 92.04,-486 259.76,-486 259.76,-504"/>
<text text-anchor="middle" x="175.9" y="-492" font-family="Vera Sans, DejaVu Sans, Liberation Sans, Arial, Helvetica, sans" font-size="10.00">_ReadoutTransformComplexMixin</text>
</a>
</g>
</g>
<!-- _ReadoutTransformComplexMixin&#45;&gt;_ReadoutGainWithGeometryMixin -->
<g id="edge53" class="edge">
<title>_ReadoutTransformComplexMixin&#45;&gt;_ReadoutGainWithGeometryMixin</title>
<path fill="none" stroke="black" stroke-width="0.5" d="M205.07,-504.04C229.46,-511.72 265.77,-522.77 297.8,-531 308.56,-533.77 320.17,-536.46 331.2,-538.9"/>
<polygon fill="black" stroke="black" stroke-width="0.5" points="330.97,-540.64 336.22,-539.99 331.71,-537.22 330.97,-540.64"/>
</g>
<!-- _ReadoutTransformComplexMixin&#45;&gt;_ReadoutGainWithLinTrendMixin -->
<g id="edge54" class="edge">
<title>_ReadoutTransformComplexMixin&#45;&gt;_ReadoutGainWithLinTrendMixin</title>
<path fill="none" stroke="black" stroke-width="0.5" d="M205.07,-485.96C229.46,-478.28 265.77,-467.23 297.8,-459 308.56,-456.23 320.17,-453.54 331.2,-451.1"/>
<polygon fill="black" stroke="black" stroke-width="0.5" points="331.71,-452.78 336.22,-450.01 330.97,-449.36 331.71,-452.78"/>
</g>
</g>
</svg>
